<?xml version="1.0" encoding="iso-8859-1"?>
<svg enable-background="new 0 0 512 512" height="512" viewBox="0 0 512 512" width="512" xml:space="preserve" xmlns="http://www.w3.org/2000/svg">
	<symbol viewBox="0 0 24 24" fill="currentColor" id="close" xmlns="http://www.w3.org/2000/svg">
		<path d="M6.22566 4.81096C5.83514 4.42044 5.20197 4.42044 4.81145 4.81096C4.42092 5.20148 4.42092 5.83465 4.81145 6.22517L10.5862 11.9999L4.81151 17.7746C4.42098 18.1651 4.42098 18.7983 4.81151 19.1888C5.20203 19.5793 5.8352 19.5793 6.22572 19.1888L12.0004 13.4141L17.7751 19.1888C18.1656 19.5793 18.7988 19.5793 19.1893 19.1888C19.5798 18.7983 19.5798 18.1651 19.1893 17.7746L13.4146 11.9999L19.1893 6.22517C19.5799 5.83465 19.5799 5.20148 19.1893 4.81096C18.7988 4.42044 18.1657 4.42044 17.7751 4.81096L12.0004 10.5857L6.22566 4.81096Z" />
	</symbol>
	<symbol viewBox="0 0 400.932 400.932" class="bi bi-skype" fill="currentColor" id="skype" xmlns="http://www.w3.org/2000/svg">
		<path style="fill:#00AAF2;" d="M384.762,231.039c-6.361-8.792-9.309-19.53-9.297-30.382c0.001-0.063,0.001-0.126,0.001-0.19
			c0-96.649-78.35-174.999-174.999-174.999c-21.143,0-41.402,3.763-60.162,10.64c-10.149,3.72-21.267,4.435-31.672,1.504
			c-9.191-2.589-19.009-3.681-29.18-2.981c-42.725,2.94-77.121,37.955-79.335,80.724c-1.057,20.414,5.065,39.351,16.053,54.539
			c6.361,8.792,9.309,19.53,9.296,30.382c0,0.063,0,0.126,0,0.19c0,96.649,78.349,174.999,174.999,174.999
			c21.144,0,41.403-3.763,60.162-10.64c10.149-3.72,21.267-4.435,31.672-1.504c9.191,2.589,19.008,3.681,29.18,2.981
			c42.725-2.94,77.12-37.954,79.335-80.722C401.872,265.166,395.75,246.228,384.762,231.039z M206.873,169.093
			c35.286,8.391,88.608,21.071,88.608,79.806c0,28.934-14.249,51.006-40.124,62.149c-18.464,7.952-39.361,9.025-57.368,9.025
			c-55.336,0-90.286-43.028-91.747-44.86c-9.062-11.366-7.197-27.928,4.17-36.99c11.364-9.066,27.926-7.196,36.99,4.167
			c0.081,0.097,20.982,24.101,50.587,25.04c35.65,1.131,43.795-9.476,44.848-18.53c1.287-11.058-8.55-19.176-48.146-28.592
			c-33.562-7.982-84.287-20.044-84.287-74.137c0-16.845,6.851-71.807,95.013-71.807c55.668,0,88.527,43.829,89.899,45.695
			c8.61,11.713,6.096,28.189-5.617,36.798c-11.662,8.572-28.034,6.119-36.677-5.452c-0.62-0.797-19.429-21.723-47.605-24.398
			c-21.32-2.025-42.37,5.663-42.37,17.02C163.047,156.06,169.092,160.108,206.873,169.093z"/>
	</symbol>
	<symbol viewBox="0 0 495 495" class="bi bi-email" fill="currentColor" id="email" xmlns="http://www.w3.org/2000/svg">
		<path style="fill:#2488FF;" d="M422.509,72.491C375.763,25.745,313.609,0,247.5,0S119.237,25.745,72.491,72.491
			C25.744,119.238,0,181.39,0,247.5s25.744,128.262,72.491,175.009C119.237,469.255,181.391,495,247.5,495
			c33.404,0,65.819-6.546,96.345-19.458l-15.582-36.84C302.694,449.517,275.521,455,247.5,455C133.084,455,40,361.916,40,247.5
			S133.084,40,247.5,40S455,133.084,455,247.5c0,48.147-28.042,69.699-55.833,69.699c-27.792,0-55.834-21.551-55.834-69.699
			c0-52.843-42.99-95.833-95.833-95.833s-95.833,42.991-95.833,95.833s42.99,95.833,95.833,95.833
			c28.55,0,54.219-12.554,71.791-32.426c18.099,30.556,49.107,46.291,79.876,46.291C446.79,357.199,495,319.518,495,247.5
			C495,181.39,469.256,119.238,422.509,72.491z M247.5,303.333c-30.786,0-55.833-25.047-55.833-55.833s25.047-55.833,55.833-55.833
			s55.833,25.047,55.833,55.833S278.286,303.333,247.5,303.333z"/>
	</symbol>
	<symbol viewBox="0 0 382 382" class="bi bi-linkedin" fill="currentColor" id="linkedin" xmlns="http://www.w3.org/2000/svg">
		<path style="fill:#0077B7;" d="M347.445,0H34.555C15.471,0,0,15.471,0,34.555v312.889C0,366.529,15.471,382,34.555,382h312.889
			C366.529,382,382,366.529,382,347.444V34.555C382,15.471,366.529,0,347.445,0z M118.207,329.844c0,5.554-4.502,10.056-10.056,10.056
			H65.345c-5.554,0-10.056-4.502-10.056-10.056V150.403c0-5.554,4.502-10.056,10.056-10.056h42.806
			c5.554,0,10.056,4.502,10.056,10.056V329.844z M86.748,123.432c-22.459,0-40.666-18.207-40.666-40.666S64.289,42.1,86.748,42.1
			s40.666,18.207,40.666,40.666S109.208,123.432,86.748,123.432z M341.91,330.654c0,5.106-4.14,9.246-9.246,9.246H286.73
			c-5.106,0-9.246-4.14-9.246-9.246v-84.168c0-12.556,3.683-55.021-32.813-55.021c-28.309,0-34.051,29.066-35.204,42.11v97.079
			c0,5.106-4.139,9.246-9.246,9.246h-44.426c-5.106,0-9.246-4.14-9.246-9.246V149.593c0-5.106,4.14-9.246,9.246-9.246h44.426
			c5.106,0,9.246,4.14,9.246,9.246v15.655c10.497-15.753,26.097-27.912,59.312-27.912c73.552,0,73.131,68.716,73.131,106.472
			L341.91,330.654L341.91,330.654z"/>
	</symbol>
</svg>
